<?xml version="1.0" encoding="utf-8"?>
<!-- Generator: Adobe Illustrator 23.0.0, SVG Export Plug-In . SVG Version: 6.00 Build 0)  -->
<svg version="1.1" id="Layer_1" xmlns="http://www.w3.org/2000/svg" xmlns:xlink="http://www.w3.org/1999/xlink" x="0px" y="0px"
	 viewBox="0 0 100 100" style="enable-background:new 0 0 100 100;" xml:space="preserve">
<style type="text/css">
	.st0{fill:#FFFFFF;}
</style>
<title>mdc-m-black</title>
<g id="Circle">
	<path class="st0" d="M50,4c25.4,0,46,20.6,46,46S75.4,96,50,96S4,75.4,4,50C4,24.6,24.6,4,50,4 M50,0C22.4,0,0,22.4,0,50
		s22.4,50,50,50s50-22.4,50-50S77.6,0,50,0z"/>
</g>
<g id="m">
	<path class="st0" d="M62.3,33.6c-2.8-0.1-5.6,0.7-8.1,2.1c-2,1.2-3.6,2.8-4.7,4.9c-0.8-2.1-2.3-3.8-4.2-5c-2.3-1.4-4.9-2.1-7.6-2
		h-0.7c-4,0-7.3,1.2-9.6,3.5c-2.1,2.4-3.3,5.9-3.3,10.3v18.9h4V47.7c0-3.4,0.8-6.1,2.5-7.8c1.9-1.8,4.4-2.8,7-2.6
		c2.6-0.1,5.1,0.8,7,2.6c1.6,1.8,2.5,4.5,2.5,7.9v18.6h3.9V49.1c0-3.6,1-6.6,3-8.7c2.1-2.2,5.1-3.4,8.2-3.2c2.6-0.1,5.1,0.8,7,2.6
		c1.8,2.2,2.7,5,2.5,7.8v18.8h4V47.5c0-4.5-1.2-7.9-3.6-10.2C69.6,34.8,66,33.5,62.3,33.6z"/>
</g>
</svg>
